<?xml version="1.0" encoding="UTF-8" standalone="no"?>
<svg
   xmlns:dc="http://purl.org/dc/elements/1.1/"
   xmlns:cc="http://creativecommons.org/ns#"
   xmlns:rdf="http://www.w3.org/1999/02/22-rdf-syntax-ns#"
   xmlns:svg="http://www.w3.org/2000/svg"
   xmlns="http://www.w3.org/2000/svg"
   xmlns:sodipodi="http://sodipodi.sourceforge.net/DTD/sodipodi-0.dtd"
   xmlns:inkscape="http://www.inkscape.org/namespaces/inkscape"
   width="380"
   height="380"
   viewBox="0 0 380 380"
   version="1.1"
   id="svg10"
   sodipodi:docname="logo_dark.svg"
   style="fill:none"
   inkscape:version="0.92.5 (2060ec1f9f, 2020-04-08)">
  <metadata
     id="metadata16">
    <rdf:RDF>
      <cc:Work
         rdf:about="">
        <dc:format>image/svg+xml</dc:format>
        <dc:type
           rdf:resource="http://purl.org/dc/dcmitype/StillImage" />
        <dc:title></dc:title>
      </cc:Work>
    </rdf:RDF>
  </metadata>
  <defs
     id="defs14" />
  <sodipodi:namedview
     pagecolor="#ffffff"
     bordercolor="#666666"
     borderopacity="1"
     objecttolerance="10"
     gridtolerance="10"
     guidetolerance="10"
     inkscape:pageopacity="0"
     inkscape:pageshadow="2"
     inkscape:window-width="2560"
     inkscape:window-height="1367"
     id="namedview12"
     showgrid="false"
     fit-margin-top="0"
     fit-margin-left="45"
     fit-margin-right="45"
     fit-margin-bottom="0"
     inkscape:zoom="0.39333333"
     inkscape:cx="-71.864407"
     inkscape:cy="190"
     inkscape:window-x="0"
     inkscape:window-y="0"
     inkscape:window-maximized="1"
     inkscape:current-layer="svg10" />
  <circle
     cx="190"
     cy="299.99899"
     r="10"
     id="circle2"
     style="fill:#171c30" />
  <circle
     cx="190"
     cy="370"
     r="10"
     id="circle4"
     style="fill:#171c30" />
  <path
     d="m 45,90 v 245 h 60 V 180 l 85,95 85,-95 v 155 h 60 V 90 H 275 L 190,184.5 105,90 Z m 145,150 c 5.523,0 10,-4.477 10,-10 0,-5.523 -4.477,-10 -10,-10 -5.523,0 -10,4.477 -10,10 0,5.523 4.477,10 10,10 z"
     id="path6"
     inkscape:connector-curvature="0"
     style="clip-rule:evenodd;fill:#171c30;fill-rule:evenodd" />
  <path
     d="M 160,45 135.5,22.501 162,0 h 56 L 244.5,22.501 220,45 h 46 L 190,176.501 114,45 Z m 6,-29.149 24,89.5 24,-89.5 z"
     id="path8"
     inkscape:connector-curvature="0"
     style="clip-rule:evenodd;fill:#171c30;fill-rule:evenodd" />
</svg>
